<?xml version="1.0" encoding="UTF-8" ?>
<!DOCTYPE svg PUBLIC "-//W3C//DTD SVG 1.1//EN" "http://www.w3.org/Graphics/SVG/1.1/DTD/svg11.dtd">
<svg width="800pt" height="800pt" viewBox="0 0 800 800" version="1.1" xmlns="http://www.w3.org/2000/svg">
<path fill="#feffff" d=" M 0.00 0.00 L 800.00 0.00 L 800.00 800.00 L 0.00 800.00 L 0.00 0.00 Z" />
<path fill="#2aa7c4" d=" M 240.07 73.96 C 252.88 78.51 266.21 82.11 277.98 89.09 C 282.37 91.84 286.94 95.12 288.91 100.10 C 290.93 105.14 288.19 111.40 283.15 113.38 C 278.32 115.24 272.85 114.08 268.04 116.03 C 265.74 116.96 264.31 119.55 264.84 122.00 C 265.95 129.94 271.27 136.73 277.64 141.31 C 282.33 144.56 288.15 147.13 293.96 145.92 C 298.33 145.03 301.47 141.15 302.45 136.94 C 303.36 133.19 304.29 128.86 308.00 126.84 C 312.71 123.68 318.71 125.99 322.61 129.38 C 331.47 136.90 336.87 147.64 340.88 158.36 C 326.97 167.77 311.66 175.09 298.54 185.67 C 294.73 188.88 290.47 192.65 290.03 197.96 C 289.59 200.64 290.66 203.49 292.92 205.05 C 299.11 209.27 307.58 208.67 313.29 213.75 C 317.08 217.33 316.37 223.21 314.56 227.61 C 310.92 236.45 303.36 244.10 293.90 246.39 C 290.55 247.39 286.64 246.21 284.59 243.33 C 280.44 237.76 281.59 230.06 277.60 224.41 C 275.22 221.15 270.17 220.73 267.02 223.09 C 261.74 226.95 258.26 232.76 255.73 238.68 C 251.34 249.24 249.63 260.70 245.07 271.20 C 229.13 267.43 212.29 259.84 204.25 244.71 C 201.93 241.69 204.17 237.75 206.98 235.99 C 212.38 232.74 219.56 233.77 224.46 229.50 C 227.84 226.50 226.87 221.39 225.19 217.75 C 221.52 209.97 215.23 203.40 207.71 199.26 C 204.01 197.17 198.81 196.23 195.47 199.47 C 191.39 203.55 192.36 209.84 191.71 215.09 C 191.62 219.35 189.96 223.39 187.23 226.64 C 178.06 226.11 170.25 220.25 165.17 212.92 C 158.79 204.14 154.76 193.97 150.93 183.90 C 161.22 178.77 171.86 174.04 180.96 166.92 C 184.03 164.37 187.22 161.63 188.80 157.88 C 191.07 152.39 188.30 145.58 183.02 142.99 C 178.29 140.69 172.71 142.19 167.91 140.19 C 164.48 138.60 163.65 134.42 163.68 131.00 C 163.96 122.67 168.28 114.94 173.84 108.93 C 178.10 104.55 183.62 100.48 190.01 100.60 C 195.51 100.60 200.45 104.60 202.12 109.75 C 203.74 114.82 204.00 120.43 206.97 125.00 C 208.03 126.66 209.81 128.21 211.92 127.93 C 214.89 127.46 217.12 125.18 219.03 123.03 C 223.45 117.78 226.57 111.60 229.49 105.44 C 234.11 95.36 237.90 84.85 240.07 73.96 Z" />
<path fill="#2aa7c4" d=" M 437.42 120.50 C 444.29 115.67 453.30 113.85 461.49 115.75 C 468.26 117.23 474.65 123.66 473.31 130.99 C 471.44 137.41 465.20 141.54 463.47 148.06 C 462.53 151.32 464.20 155.11 467.19 156.67 C 472.27 158.07 477.65 157.40 482.80 156.73 C 497.42 154.34 511.21 148.54 524.46 142.08 C 528.48 156.47 532.36 171.58 529.30 186.56 C 528.75 189.12 527.05 192.17 524.03 191.98 C 519.96 191.53 516.97 188.39 513.47 186.60 C 508.59 183.76 502.19 181.93 496.94 184.90 C 490.29 188.79 486.49 196.42 486.06 203.97 C 485.53 210.90 485.96 218.78 490.75 224.27 C 494.27 228.28 500.16 228.16 504.92 226.96 C 509.72 225.95 514.00 222.49 519.11 223.31 C 522.79 223.58 526.89 225.67 527.20 229.78 C 530.56 246.53 521.29 262.05 513.74 276.25 C 499.32 272.43 485.07 266.83 469.96 266.76 C 462.70 266.70 454.57 269.05 450.53 275.54 C 448.34 279.11 450.28 283.40 452.58 286.39 C 454.70 289.53 458.18 292.08 458.59 296.10 C 459.22 302.30 453.91 307.79 448.05 308.85 C 441.58 310.13 433.85 308.88 429.58 303.42 C 425.56 298.31 426.67 290.99 429.75 285.70 C 431.46 282.47 434.56 279.01 432.81 275.12 C 429.86 268.04 421.77 265.09 414.64 264.54 C 400.54 263.54 386.63 267.18 373.26 271.28 C 368.61 259.85 363.23 247.69 365.43 235.07 C 366.70 227.91 375.98 224.15 381.96 228.20 C 386.59 230.94 390.97 236.34 396.94 234.76 C 402.80 232.40 405.78 225.87 406.44 219.92 C 407.64 210.29 403.10 199.19 393.61 195.50 C 388.95 193.45 384.66 197.33 380.10 197.81 C 375.58 198.82 370.37 197.08 368.21 192.79 C 364.53 185.79 365.32 177.46 366.35 169.90 C 368.22 159.23 371.57 148.63 377.54 139.50 C 390.60 145.39 403.80 151.51 418.03 153.96 C 424.66 154.99 431.94 155.32 437.98 151.93 C 440.87 150.50 443.25 147.43 442.42 144.05 C 441.24 138.78 435.48 136.30 433.77 131.27 C 431.95 127.33 434.00 122.79 437.42 120.50 Z" />
<path fill="#feffff" d=" M 222.21 132.05 C 234.77 127.49 249.59 133.09 256.87 144.06 C 261.11 151.75 257.52 160.86 260.12 168.90 C 261.48 173.65 267.32 174.39 269.83 178.22 C 271.02 181.12 271.39 184.25 272.09 187.29 C 266.55 193.61 260.91 199.92 254.53 205.40 C 255.94 200.01 261.30 197.10 264.34 192.68 C 260.76 195.70 257.75 199.34 254.03 202.19 C 251.95 203.86 249.22 202.56 247.05 201.80 C 242.36 199.96 242.18 193.50 237.67 191.41 C 229.91 187.70 220.54 192.58 213.02 187.89 C 203.18 180.80 197.62 167.81 200.61 155.86 C 203.14 144.97 211.80 135.84 222.21 132.05 Z" />
<path fill="#2aa7c4" d=" M 225.65 136.60 C 232.41 133.13 242.69 135.16 245.45 142.88 C 249.10 153.95 240.28 164.84 243.83 175.92 C 246.39 176.33 248.95 176.78 251.49 177.32 C 249.49 181.33 245.56 184.49 241.00 184.79 C 238.11 185.03 235.60 182.67 235.06 179.94 C 233.27 171.25 236.84 162.70 237.05 154.04 C 237.22 150.43 235.96 146.19 232.33 144.69 C 229.14 143.15 225.70 145.27 223.64 147.68 C 218.41 153.71 216.55 161.96 216.82 169.78 C 218.40 169.13 219.94 167.94 221.75 168.22 C 225.00 171.16 223.18 176.70 219.63 178.56 C 216.64 180.40 211.02 181.94 209.31 177.73 C 204.05 162.65 210.42 143.18 225.65 136.60 Z" />
<path fill="#2aa7c4" d=" M 532.25 143.53 C 546.62 148.96 556.98 161.07 566.04 172.97 C 580.90 193.46 592.58 216.30 600.44 240.36 C 603.32 250.23 605.81 260.21 608.55 270.12 C 610.80 278.53 612.78 287.38 611.01 296.08 C 609.62 304.72 604.32 312.22 603.51 321.00 C 602.06 333.53 607.23 345.69 613.85 356.04 C 623.26 370.24 634.62 383.13 643.15 397.93 C 645.75 402.60 648.31 407.51 648.94 412.90 C 649.56 417.96 646.71 422.86 642.63 425.69 C 636.28 430.19 628.36 431.32 621.34 434.40 C 618.02 435.81 616.16 439.44 616.33 442.96 C 616.43 450.73 620.20 457.76 623.23 464.72 C 624.78 468.19 625.63 472.30 623.98 475.90 C 621.87 480.83 617.08 483.72 612.72 486.42 C 616.35 488.99 621.21 491.85 620.96 496.97 C 621.78 504.20 614.18 507.95 612.02 514.15 C 608.76 521.56 612.28 529.40 613.19 536.90 C 614.35 545.90 614.80 555.53 611.07 564.03 C 609.08 568.57 604.93 572.16 599.98 572.99 C 585.50 575.81 570.62 576.17 555.95 574.79 C 545.65 573.99 535.33 572.37 524.98 573.03 C 513.17 574.10 500.78 581.39 497.65 593.45 C 491.77 614.28 489.45 636.35 492.55 657.85 C 493.72 667.78 497.32 677.21 501.98 686.00 C 415.75 686.00 329.52 686.00 243.29 686.00 C 261.99 640.78 279.04 593.48 279.74 543.98 C 279.72 533.61 280.13 522.97 276.80 513.00 C 272.00 497.98 263.20 484.67 254.09 471.96 C 243.59 457.91 235.19 442.43 227.61 426.66 C 237.50 421.42 247.91 416.74 259.02 414.93 C 262.78 414.47 266.91 413.87 270.41 415.65 C 273.44 417.39 272.91 421.38 272.20 424.24 C 271.13 429.38 268.05 434.61 269.93 439.94 C 273.01 448.90 282.03 454.50 291.04 456.03 C 299.22 457.37 307.91 456.87 315.59 453.59 C 321.45 451.08 326.65 445.72 326.84 439.05 C 327.25 433.90 324.39 429.42 321.99 425.13 C 320.39 422.45 320.50 418.17 323.71 416.77 C 327.65 415.14 331.90 416.95 335.61 418.39 C 361.92 429.27 388.26 442.07 417.03 444.48 C 427.32 445.83 435.11 433.68 431.61 424.55 C 430.21 420.79 428.15 417.14 428.17 413.02 C 427.79 406.82 431.64 400.74 437.31 398.29 C 441.70 396.21 446.77 397.19 451.21 398.58 C 455.11 399.79 458.98 402.58 459.79 406.82 C 460.99 412.76 457.87 418.25 455.49 423.45 C 452.85 428.81 453.27 436.01 457.87 440.19 C 462.15 444.38 468.62 444.16 474.13 443.41 C 485.57 441.66 496.75 437.67 506.50 431.40 C 511.77 427.84 517.29 422.83 517.67 416.06 C 517.73 409.26 512.07 404.59 508.74 399.25 C 505.20 393.43 502.07 386.93 501.91 380.00 C 501.82 377.40 502.68 373.58 505.96 373.60 C 511.22 374.06 515.55 378.11 520.95 378.03 C 525.43 378.12 529.13 374.99 531.74 371.65 C 540.81 360.66 542.78 343.05 533.17 331.79 C 530.62 328.90 527.01 326.56 523.03 326.68 C 516.92 326.95 512.08 331.81 505.98 332.00 C 502.04 331.06 502.59 325.93 503.07 322.87 C 506.09 309.49 510.67 296.39 517.25 284.32 C 524.62 271.06 530.73 256.89 533.42 241.89 C 534.20 236.88 534.64 231.64 533.29 226.70 C 531.80 221.28 526.52 217.41 521.03 216.94 C 513.46 216.35 506.68 221.39 499.12 220.54 C 495.33 220.03 493.04 216.35 492.44 212.86 C 491.51 207.49 492.27 201.71 494.96 196.93 C 497.28 192.80 502.36 190.72 506.95 191.72 C 512.30 192.50 516.32 196.33 520.51 199.38 C 523.53 201.75 528.15 201.66 530.83 198.80 C 535.65 193.87 537.04 186.66 537.64 180.03 C 538.21 167.64 534.99 155.51 532.25 143.53 Z" />
<path fill="#2aa7c4" d=" M 257.30 181.22 C 258.42 180.83 260.31 180.75 260.65 182.25 C 261.72 186.79 258.70 192.10 253.86 192.68 C 251.69 193.27 249.92 191.03 250.24 188.99 C 250.48 185.13 253.95 182.48 257.30 181.22 Z" />
<path fill="#feffff" d=" M 256.24 205.98 C 262.10 199.59 267.64 192.74 274.51 187.39 C 273.82 189.28 272.83 191.05 271.42 192.48 C 266.83 197.41 262.10 202.20 257.41 207.04 C 257.12 206.78 256.53 206.25 256.24 205.98 Z" />
<path fill="#feffff" d=" M 264.73 200.77 C 268.61 196.97 271.89 192.46 276.54 189.52 C 275.06 193.38 271.84 196.08 269.11 199.03 C 265.60 202.57 262.36 206.41 258.44 209.54 C 259.05 205.75 262.39 203.48 264.73 200.77 Z" />
<path fill="#feffff" d=" M 269.63 199.73 C 272.42 196.84 275.03 193.68 278.50 191.56 C 276.12 197.07 271.02 200.65 267.20 205.10 C 264.88 207.14 263.18 210.53 259.80 210.85 C 262.63 206.77 266.26 203.35 269.63 199.73 Z" />
<path fill="#feffff" d=" M 271.64 201.71 C 274.41 198.85 277.01 195.73 280.43 193.60 C 278.36 198.74 273.65 202.05 270.13 206.13 C 267.46 208.51 265.52 212.25 261.75 212.96 C 264.57 208.81 268.25 205.37 271.64 201.71 Z" />
<path fill="#feffff" d=" M 280.91 195.63 C 281.85 196.65 282.80 197.66 283.76 198.68 C 277.66 204.74 271.88 211.26 264.78 216.17 C 264.54 214.64 264.88 213.15 266.05 212.08 C 270.95 206.56 276.30 201.42 280.91 195.63 Z" />
<path fill="#2aa7c4" d=" M 285.35 265.40 C 291.72 262.14 299.26 261.40 306.23 262.81 C 312.28 264.04 316.84 269.87 316.79 276.00 C 317.03 281.12 313.10 285.08 312.27 289.95 C 311.69 292.85 313.24 296.01 315.95 297.24 C 319.16 298.53 322.75 297.85 326.10 297.56 C 340.94 295.52 354.19 288.00 367.11 280.88 C 370.56 290.52 376.32 299.03 380.83 308.16 C 382.84 312.46 384.94 317.11 384.37 321.98 C 383.86 326.33 379.46 330.07 375.02 329.09 C 369.90 328.01 365.50 324.19 360.04 324.68 C 352.87 324.84 347.71 330.95 345.03 337.03 C 340.44 347.46 338.68 359.93 343.47 370.61 C 346.17 376.97 351.87 382.52 358.99 383.22 C 363.34 383.87 367.52 382.22 371.51 380.71 C 375.84 378.73 381.54 383.32 379.80 388.02 C 376.70 400.34 372.02 412.22 366.98 423.87 C 354.61 419.53 342.71 413.80 329.96 410.62 C 325.61 409.64 320.77 408.47 316.59 410.66 C 313.22 412.24 311.10 416.25 312.26 419.90 C 313.84 424.70 317.67 428.69 317.96 433.94 C 318.65 439.02 315.19 443.70 310.74 445.79 C 304.16 448.96 296.37 449.63 289.34 447.73 C 284.58 446.16 279.17 443.24 278.19 437.85 C 277.37 431.26 281.23 425.47 283.36 419.52 C 284.65 416.01 282.36 412.39 279.60 410.35 C 274.09 406.07 266.59 405.88 259.99 407.03 C 247.61 409.15 236.28 414.85 224.78 419.63 C 220.25 409.79 216.37 399.52 214.66 388.79 C 214.03 383.65 213.49 377.96 216.22 373.30 C 217.79 370.57 221.42 369.64 224.27 370.77 C 230.27 372.92 236.41 376.44 243.00 375.12 C 247.87 373.91 249.44 368.39 249.94 364.01 C 250.40 358.38 251.09 352.40 249.05 346.99 C 246.45 340.82 238.63 339.22 232.71 340.84 C 228.82 341.79 224.26 344.40 220.55 341.56 C 216.33 338.08 215.77 332.10 215.50 327.01 C 215.41 316.00 217.66 304.73 223.21 295.12 C 235.43 299.74 247.99 303.92 261.05 305.22 C 266.82 305.70 272.96 305.77 278.30 303.22 C 282.20 301.36 284.47 296.63 283.35 292.43 C 282.10 288.06 278.57 284.61 277.94 280.02 C 277.02 274.23 280.09 268.04 285.35 265.40 Z" />
<path fill="#2aa7c4" d=" M 375.18 279.05 C 385.97 275.61 396.60 271.09 407.99 270.03 C 413.00 269.62 418.67 269.87 422.65 273.37 C 425.26 275.66 426.80 280.25 423.99 282.99 C 420.39 286.93 417.89 292.28 419.20 297.71 C 421.43 307.30 430.45 314.33 439.93 315.86 C 447.03 317.07 453.72 313.27 458.92 308.82 C 462.29 305.83 465.46 301.70 465.01 296.94 C 464.39 290.96 457.81 287.88 456.91 282.00 C 456.33 278.65 459.49 276.46 462.03 275.04 C 468.83 271.35 476.97 272.18 484.24 273.80 C 493.62 276.01 502.51 279.82 511.65 282.80 C 506.94 294.88 499.65 305.98 496.88 318.77 C 495.93 323.49 495.60 328.48 496.94 333.16 C 498.45 338.55 505.77 341.90 510.54 338.51 C 514.60 336.00 518.96 332.98 524.00 333.51 C 527.55 333.88 529.59 337.22 531.07 340.10 C 536.32 350.40 533.12 364.95 522.82 370.83 C 517.23 373.45 512.01 368.81 506.93 367.09 C 503.43 365.42 498.78 366.14 496.69 369.63 C 494.07 374.23 494.29 379.90 494.90 385.00 C 496.79 397.28 505.88 406.56 510.31 417.85 C 500.83 428.33 487.44 436.18 473.06 436.49 C 468.29 436.81 462.91 434.67 461.22 429.88 C 459.84 426.30 462.68 423.21 464.17 420.22 C 467.46 414.46 468.46 406.88 464.92 401.01 C 461.05 394.47 453.45 391.23 446.18 390.40 C 440.38 389.59 434.14 390.66 429.42 394.26 C 423.64 398.50 420.58 405.95 421.41 413.03 C 421.93 418.57 425.27 423.43 425.50 429.01 C 425.68 431.71 424.35 434.65 421.69 435.62 C 417.61 437.10 413.17 436.43 408.97 435.98 C 397.19 434.26 385.88 430.20 375.14 425.17 C 378.63 412.24 386.35 400.52 387.40 386.95 C 387.70 381.87 387.11 375.49 382.07 372.82 C 377.13 369.93 371.78 373.14 366.89 374.40 C 362.33 375.68 356.49 376.03 353.12 372.07 C 349.37 367.30 348.97 360.87 348.94 355.05 C 349.12 347.52 351.15 339.14 357.46 334.38 C 360.39 332.03 364.45 331.98 367.91 333.04 C 372.83 334.25 376.78 338.23 382.00 338.38 C 386.24 338.66 390.65 336.16 392.05 332.04 C 393.56 327.51 392.76 322.60 391.60 318.09 C 387.86 304.38 379.61 292.49 375.18 279.05 Z" />
</svg>
