<svg version="1" xmlns="http://www.w3.org/2000/svg" width="1066.667" height="1066.667" viewBox="0 0 800.000000 800.000000" fill="#af1e3a" ><path d="M165.9 159.9l-2.9 2.9v376.4l2.9 2.9 2.9 2.9h503.4l2.9-2.9 2.9-2.9V162.8l-2.9-2.9-2.9-2.9H168.8l-2.9 2.9zm506.9 17.8l.3 15.3H168v-14.8c0-8.2.3-15.2.7-15.5.3-.4 113.8-.6 252.2-.5l251.6.3.3 15.2zM636.5 215v8.5l-195.9.3c-144 .1-196.2-.1-197.2-.9-1.8-1.5-1.9-14-.2-15.7.9-.9 45.6-1.1 197.3-1l196 .3v8.5zm-406-4c2.8 2.9 3.4 4 2.2 4-1.3 0-1.7.9-1.7 4 0 3.3-.3 4-2 4-1.5 0-2-.7-2-2.5 0-1.6-.6-2.5-1.5-2.5s-1.5 1-1.5 2.6c0 2.1-.4 2.5-2.2 2.2-1.9-.2-2.4-1-2.6-4.1-.2-2-.8-3.7-1.5-3.7-.6 0 .7-1.8 2.8-4 2.1-2.2 4.4-4 5-4 .6 0 2.9 1.8 5 4zm8.5 57v4h-50v-8h50v4zm16.8 12.2l.3 3.8H189v-8l33.3.2 33.2.3.3 3.7zM239 292v4h-50v-8h50v4zm0 12v4h-50v-8h50v4zm-30 12v4h-20v-8h20v4zm13.5 12v3.5l-16.7.3-16.8.2v-8l16.8.2 16.7.3v3.5zM209 340v4h-20v-8h20v4zm78 0v4h-73v-8h73v4zm42 11.5v3.5H214v-7h115v3.5zm46 12v3.5H214v-7h161v3.5zm297.8 94.7l-.3 81.3h-504l-.3-81.3-.2-81.2h505l-.2 81.2z"/><path d="M177.7 388.7c-.4.3-.7 15-.7 32.5V453h112v-65h-55.3c-30.5 0-55.7.3-56 .7zM302.7 388.7c-.4.3-.7 15-.7 32.5V453h112v-65h-55.3c-30.5 0-55.7.3-56 .7zM427 420.5V453h112l-.2-32.3-.3-32.2-55.7-.3-55.8-.2v32.5zM552 420.5V453h112l-.2-32.3-.3-32.2-55.7-.3-55.8-.2v32.5zM177 473v6h112v-12H177v6zM302 473v6h112v-12H302v6zM427 473v6h112v-12H427v6zM552 473v6h112v-12H552v6zM177 498v6h112v-12H177v6zM302 498v6h112v-12H302v6zM427 498v6h112v-12H427v6zM552 498v6h112v-12H552v6zM177 520v6h112v-12H177v6zM302 520v6h112v-12H302v6zM427 520v6h112v-12H427v6zM552 520v6h112v-12H552v6z"/></svg>