<?xml version="1.0" encoding="utf-8"?>
<!-- Generator: Adobe Illustrator 16.0.0, SVG Export Plug-In . SVG Version: 6.00 Build 0)  -->
<!DOCTYPE svg PUBLIC "-//W3C//DTD SVG 1.1//EN" "http://www.w3.org/Graphics/SVG/1.1/DTD/svg11.dtd">
<svg version="1.1" id="Layer_1" xmlns="http://www.w3.org/2000/svg" xmlns:xlink="http://www.w3.org/1999/xlink" x="0px" y="0px"
	 width="200px" height="200px" viewBox="0 -50 200 200" enable-background="new 0 -50 200 200" xml:space="preserve">
<polyline opacity="0.04" points="83.89,53.229 100,43 75.25,44.083 "/>
<polyline opacity="0.02" points="28.5,28 25,45.125 18.563,34.063 "/>
<polyline opacity="0.03" points="25,45.125 0,50 7,36 "/>
<polyline opacity="0.09" points="18.563,34.063 25,45.125 7,36 "/>
<polyline opacity="0.02" points="0,19.834 18.563,34.063 7,36 "/>
<polyline opacity="0.05" points="0,19.834 7,36 0,50 "/>
<polyline opacity="0.06" points="28.5,28 18.563,34.063 0,19.834 "/>
<polyline opacity="0.08" points="28.5,28 44.5,21.5 25,45.125 "/>
<polyline opacity="0.05" points="25,45.125 34.75,47 44.5,21.5 "/>
<polyline opacity="0.08" points="53,34.063 44.5,21.5 37.867,38.949 "/>
<polyline opacity="0.02" points="53,34.063 49,50 37.867,38.949 "/>
<polyline opacity="0.03" points="34.75,47 49,50 37.867,38.949 "/>
<polyline opacity="0.02" points="53,34.063 44.5,21.5 59,26.948 "/>
<polyline opacity="0.07" points="59,26.948 53,34.063 83.89,53.229 "/>
<polyline opacity="0.06" points="49,50 69,51.781 53,34.063 "/>
<polyline opacity="0.03" points="83.89,53.229 53,34.063 69,51.781 "/>
<polyline opacity="0.08" points="100,43 75.111,44 100.563,33.313 "/>
<polyline opacity="0.04" points="100.563,33.313 59,26.948 75.111,44 "/>
<polyline opacity="0.01" points="0,19.834 28.5,28 16.833,10.834 "/>
<polyline opacity="0.03" points="44.5,21.5 28.5,28 16.833,10.834 "/>
<polyline opacity="0.02" points="51,14.834 44.5,21.5 11.5,-1.833 "/>
<polyline opacity="0.06" points="16.833,10.834 11.5,-1.833 44.5,21.5 "/>
<polyline opacity="0.07" points="16.833,10.834 0,19.834 11.5,-1.833 "/>
<polyline opacity="0.05" points="51,14.834 44.5,21.5 59,26.948 "/>
<polyline opacity="0.01" points="59,26.948 51,14.834 69.667,6.667 "/>
<polyline opacity="0.02" points="0,19.834 0,-19.667 11.5,-1.833 "/>
<polyline opacity="0.08" points="59,26.948 79.5,30.131 69.667,6.667 "/>
<polyline opacity="0.01" points="102.942,-6.552 79.5,30.131 100.563,33.313 "/>
<polyline opacity="0.05" points="99.053,-0.465 69.667,6.667 79.5,30.131 "/>
<polyline opacity="0.06" points="49,-1.833 69.667,6.667 51,14.834 "/>
<polyline opacity="0.08" points="11.5,-1.833 51,14.834 49,-1.833 "/>
<polyline opacity="0.04" points="28.5,-15.167 11.5,-1.833 0,-19.667 "/>
<polyline opacity="0.06" points="28.5,-15.167 11.5,-1.833 49,-1.833 "/>
<polyline opacity="0.01" points="28.5,-15.167 34.75,-33.5 0,-19.667 "/>
<polyline opacity="0.03" points="7,-50 14.25,-36.5 0,-19.667 "/>
<polyline opacity="0.08" points="14.25,-36.5 34.75,-33.5 0,-19.667 "/>
<polyline opacity="0.05" points="7,-50 0,-50 0,-19.667 "/>
<polyline opacity="0.06" points="7,-50 14.25,-36.5 51.75,-50 "/>
<polyline opacity="0.02" points="51.75,-50 14.25,-36.5 34.75,-33.5 "/>
<polyline opacity="0.06" points="62.334,-13.833 49,-1.833 34.75,-33.5 "/>
<polyline opacity="0.02" points="49,-1.833 34.75,-33.5 28.5,-15.167 "/>
<polyline opacity="0.04" points="62.334,-13.833 49,-1.833 69.667,6.667 "/>
<polyline opacity="0.05" points="62.334,-13.833 84.834,-16.333 83.89,3.229 "/>
<polyline opacity="0.01" points="69.667,6.667 83.89,3.229 62.334,-13.833 "/>
<polyline opacity="0.01" points="62.334,-13.833 54.334,-31.917 34.75,-33.5 "/>
<polyline opacity="0.05" points="51.75,-50 34.75,-33.5 54.334,-31.917 "/>
<polyline opacity="0.03" points="104.778,-36.5 84.834,-16.333 76.334,-26.833 "/>
<polyline opacity="0.08" points="62.334,-13.833 76.334,-26.833 84.834,-16.333 "/>
<polyline opacity="0.01" points="62.334,-13.833 76.334,-26.833 54.334,-31.917 "/>
<polyline opacity="0.01" points="51.75,-50 54.334,-31.917 67,-50 "/>
<polyline opacity="0.02" points="100,-50 76.334,-26.833 104.778,-36.5 "/>
<polyline opacity="0.08" points="54.334,-31.917 67,-50 76.334,-26.833 "/>
<polyline opacity="0.05" points="100,-50 71.118,-39.778 76.334,-26.833 "/>
<polyline opacity="0.02" points="71.118,-39.778 100,-50 67,-50 "/>
<polyline opacity="0.02" points="178,21.5 195.125,25 184.063,31.438 "/>
<polyline opacity="0.03" points="195.125,25 200,50 186,43 "/>
<polyline opacity="0.09" points="184.063,31.438 195.125,25 186,43 "/>
<polyline opacity="0.07" points="195.125,25 200,16.333 200,50 "/>
<polyline opacity="0.02" points="168,53.229 184.063,31.438 186,43 "/>
<polyline opacity="0.05" points="168,53.229 186,43 200,50 "/>
<polyline opacity="0.06" points="178,21.5 184.063,31.438 168,53.229 "/>
<polyline opacity="0.08" points="178,21.5 171.5,5.5 195.125,25 "/>
<polyline opacity="0.05" points="195.125,25 200,16.333 171.5,5.5 "/>
<polyline opacity="0.08" points="184.063,-3 171.5,5.5 188.949,12.133 "/>
<polyline opacity="0.02" points="184.063,-3 200,1 188.949,12.133 "/>
<polyline opacity="0.03" points="200,16.333 200,1 188.949,12.133 "/>
<polyline opacity="0.02" points="184.063,-3 171.5,5.5 176.948,-9 "/>
<polyline opacity="0.07" points="176.948,-9 184.063,-3 200,-32.834 "/>
<polyline opacity="0.06" points="200,1 200,-19 184.063,-3 "/>
<polyline opacity="0.03" points="200,-32.834 184.063,-3 200,-19 "/>
<polyline opacity="0.02" points="200,-50 193.667,-26.334 183.313,-50 "/>
<polyline opacity="0.05" points="200,-32.834 193.667,-26.334 200,-50 "/>
<polyline opacity="0.04" points="183.313,-50 176.948,-9 193.667,-26.334 "/>
<polyline opacity="0.01" points="168,53.229 178,21.5 160.834,33.166 "/>
<polyline opacity="0.03" points="171.5,5.5 178,21.5 160.834,33.166 "/>
<polyline opacity="0.02" points="164.834,-1 171.5,5.5 148.167,38.5 "/>
<polyline opacity="0.06" points="160.834,33.166 148.167,38.5 171.5,5.5 "/>
<polyline opacity="0.07" points="160.834,33.166 168,53.229 148.167,38.5 "/>
<polyline opacity="0.05" points="164.834,-1 171.5,5.5 176.948,-9 "/>
<polyline opacity="0.01" points="176.948,-9 164.834,-1 156.667,-19.667 "/>
<polyline opacity="0.02" points="148.25,50 130.334,50 148.167,38.5 "/>
<polyline opacity="0.08" points="176.948,-9 180.131,-29.5 156.667,-19.667 "/>
<polyline opacity="0.01" points="149.334,-50 180.131,-29.5 183.313,-50 "/>
<polyline opacity="0.05" points="149.334,-50 156.667,-19.667 180.131,-29.5 "/>
<polyline opacity="0.06" points="148.167,1 156.667,-19.667 164.834,-1 "/>
<polyline opacity="0.08" points="148.167,38.5 164.834,-1 148.167,1 "/>
<polyline opacity="0.04" points="134.834,21.5 148.167,38.5 130.334,50 "/>
<polyline opacity="0.06" points="134.834,21.5 148.167,38.5 148.167,1 "/>
<polyline opacity="0.01" points="134.834,21.5 116.5,15.25 130.334,50 "/>
<polyline opacity="0.03" points="100,43 113.5,35.75 130.334,50 "/>
<polyline opacity="0.08" points="113.5,35.75 116.5,15.25 130.334,50 "/>
<polyline opacity="0.06" points="100,43 113.5,35.75 102.942,-6.552 "/>
<polyline opacity="0.02" points="102.942,-6.552 113.5,35.75 116.5,15.25 "/>
<polyline opacity="0.06" points="136.167,-12.334 148.167,1 116.5,15.25 "/>
<polyline opacity="0.02" points="148.167,1 116.5,15.25 134.834,21.5 "/>
<polyline opacity="0.04" points="136.167,-12.334 148.167,1 156.667,-19.667 "/>
<polyline opacity="0.02" points="153.229,-33.89 149.334,-50 133.667,-34.834 "/>
<polyline opacity="0.05" points="136.167,-12.334 133.667,-34.834 153.229,-33.89 "/>
<polyline opacity="0.01" points="156.667,-19.667 153.229,-33.89 136.167,-12.334 "/>
<polyline opacity="0.06" points="149.334,-50 116.5,-50 133.667,-34.834 "/>
<polyline opacity="0.01" points="136.167,-12.334 118.084,-4.334 116.5,15.25 "/>
<polyline opacity="0.05" points="102.942,-6.552 116.5,15.25 118.084,-4.334 "/>
<polyline opacity="0.03" points="116.5,-50 133.667,-34.834 123.167,-26.334 "/>
<polyline opacity="0.08" points="136.167,-12.334 123.167,-26.334 133.667,-34.834 "/>
<polyline opacity="0.01" points="136.167,-12.334 123.167,-26.334 118.084,-4.334 "/>
<polyline opacity="0.01" points="102.942,-6.552 118.084,-4.334 110.223,-21.118 "/>
<polyline opacity="0.02" points="100,-50 123.167,-26.334 116.5,-50 "/>
<polyline opacity="0.08" points="118.084,-4.334 110.223,-21.118 123.167,-26.334 "/>
<polyline opacity="0.05" points="100,-50 110.223,-21.118 123.167,-26.334 "/>
<polyline opacity="0.08" points="84.834,-16.333 104.778,-36.5 110.223,-21.118 "/>
<polyline opacity="0.02" points="181.438,134.063 175,145.125 171.5,128 "/>
<polyline opacity="0.03" points="193,136 200,150 175,145.125 "/>
<polyline opacity="0.09" points="193,136 175,145.125 181.438,134.063 "/>
<polyline opacity="0.07" points="200,150 166.333,150 175,145.125 "/>
<polyline opacity="0.02" points="193,136 181.438,134.063 200,119.834 "/>
<polyline opacity="0.05" points="200,150 193,136 200,119.834 "/>
<polyline opacity="0.06" points="200,119.834 181.438,134.063 171.5,128 "/>
<polyline opacity="0.08" points="175,145.125 155.5,121.5 171.5,128 "/>
<polyline opacity="0.05" points="155.5,121.5 166.333,150 175,145.125 "/>
<polyline opacity="0.08" points="162.133,138.949 155.5,121.5 147,134.063 "/>
<polyline opacity="0.02" points="162.133,138.949 151,150 147,134.063 "/>
<polyline opacity="0.03" points="162.133,138.949 151,150 166.333,150 "/>
<polyline opacity="0.02" points="141,126.948 155.5,121.5 147,134.063 "/>
<polyline opacity="0.07" points="117.166,150 147,134.063 141,126.948 "/>
<polyline opacity="0.06" points="147,134.063 131,150 151,150 "/>
<polyline opacity="0.03" points="131,150 147,134.063 117.166,150 "/>
<polyline opacity="0.02" points="100,133.313 123.666,143.667 100,150 "/>
<polyline opacity="0.05" points="100,150 123.666,143.667 117.166,150 "/>
<polyline opacity="0.04" points="123.666,143.667 141,126.948 100,133.313 "/>
<polyline opacity="0.01" points="183.166,110.834 171.5,128 200,119.834 "/>
<polyline opacity="0.03" points="183.166,110.834 171.5,128 155.5,121.5 "/>
<polyline opacity="0.02" points="188.5,98.167 155.5,121.5 149,114.834 "/>
<polyline opacity="0.06" points="155.5,121.5 188.5,98.167 183.166,110.834 "/>
<polyline opacity="0.07" points="188.5,98.167 200,119.834 183.166,110.834 "/>
<polyline opacity="0.05" points="141,126.948 155.5,121.5 149,114.834 "/>
<polyline opacity="0.01" points="130.333,106.667 149,114.834 141,126.948 "/>
<polyline opacity="0.02" points="188.5,98.167 200,80.334 200,119.834 "/>
<polyline opacity="0.08" points="130.333,106.667 120.5,130.131 141,126.948 "/>
<polyline opacity="0.01" points="100,133.313 120.5,130.131 97.058,93.447 "/>
<polyline opacity="0.05" points="120.5,130.131 130.333,106.667 100,99.334 "/>
<polyline opacity="0.06" points="149,114.834 130.333,106.667 151,98.167 "/>
<polyline opacity="0.08" points="151,98.167 149,114.834 188.5,98.167 "/>
<polyline opacity="0.04" points="200,80.334 188.5,98.167 171.5,84.834 "/>
<polyline opacity="0.06" points="151,98.167 188.5,98.167 171.5,84.834 "/>
<polyline opacity="0.01" points="200,80.334 165.25,66.5 171.5,84.834 "/>
<polyline opacity="0.03" points="200,80.334 185.75,63.5 187.063,51.313 "/>
<polyline opacity="0.08" points="200,80.334 165.25,66.5 185.75,63.5 "/>
<polyline opacity="0.05" points="200,80.334 200,50 187.063,51.313 "/>
<polyline opacity="0.06" points="148.25,50 185.75,63.5 168,53.229 "/>
<polyline opacity="0.02" points="165.25,66.5 185.75,63.5 148.25,50 "/>
<polyline opacity="0.06" points="165.25,66.5 151,98.167 137.666,86.167 "/>
<polyline opacity="0.02" points="171.5,84.834 165.25,66.5 151,98.167 "/>
<polyline opacity="0.04" points="130.333,106.667 151,98.167 137.666,86.167 "/>
<polyline opacity="0.05" points="116.11,103.229 115.166,83.667 137.666,86.167 "/>
<polyline opacity="0.01" points="137.666,86.167 116.11,103.229 130.333,106.667 "/>
<polyline opacity="0.01" points="165.25,66.5 145.666,68.084 137.666,86.167 "/>
<polyline opacity="0.05" points="145.666,68.084 165.25,66.5 148.25,50 "/>
<polyline opacity="0.03" points="123.666,73.167 115.166,83.667 94.229,63.447 "/>
<polyline opacity="0.08" points="115.166,83.667 123.666,73.167 137.666,86.167 "/>
<polyline opacity="0.01" points="145.666,68.084 123.666,73.167 137.666,86.167 "/>
<polyline opacity="0.01" points="130.334,50 145.666,68.084 148.25,50 "/>
<polyline opacity="0.02" points="94.229,63.447 123.666,73.167 100,43 "/>
<polyline opacity="0.08" points="123.666,73.167 130.334,50 145.666,68.084 "/>
<polyline opacity="0.05" points="123.666,73.167 127.586,59.446 100,43 "/>
<polyline opacity="0.02" points="130.334,50 100,43 127.586,59.446 "/>
<polyline opacity="0.02" points="15.938,131.438 4.875,125 22,121.5 "/>
<polyline opacity="0.03" points="14,143 0,150 4.875,125 "/>
<polyline opacity="0.09" points="14,143 4.875,125 15.938,131.438 "/>
<polyline opacity="0.07" points="0,150 0,116.333 4.875,125 "/>
<polyline opacity="0.02" points="14,143 15.938,131.438 30.166,150 "/>
<polyline opacity="0.05" points="0,150 14,143 30.166,150 "/>
<polyline opacity="0.06" points="30.166,150 15.938,131.438 22,121.5 "/>
<polyline opacity="0.08" points="4.875,125 28.5,105.5 22,121.5 "/>
<polyline opacity="0.05" points="28.5,105.5 0,116.333 4.875,125 "/>
<polyline opacity="0.08" points="11.051,112.133 28.5,105.5 15.938,97 "/>
<polyline opacity="0.02" points="11.051,112.133 0,101 15.938,97 "/>
<polyline opacity="0.03" points="11.051,112.133 0,101 0,116.333 "/>
<polyline opacity="0.02" points="23.052,91 28.5,105.5 15.938,97 "/>
<polyline opacity="0.07" points="0,67.166 15.938,97 23.052,91 "/>
<polyline opacity="0.06" points="15.938,97 0,81 0,101 "/>
<polyline opacity="0.03" points="0,81 15.938,97 0,67.166 "/>
<polyline opacity="0.02" points="17.534,46.581 6.333,73.666 0,50 "/>
<polyline opacity="0.05" points="0,50 6.333,73.666 0,67.166 "/>
<polyline opacity="0.04" points="6.333,73.666 23.052,91 17.534,46.581 "/>
<polyline opacity="0.01" points="39.166,133.166 22,121.5 30.166,150 "/>
<polyline opacity="0.03" points="39.166,133.166 22,121.5 28.5,105.5 "/>
<polyline opacity="0.02" points="51.833,138.5 28.5,105.5 35.166,99 "/>
<polyline opacity="0.06" points="28.5,105.5 51.833,138.5 39.166,133.166 "/>
<polyline opacity="0.07" points="51.833,138.5 30.166,150 39.166,133.166 "/>
<polyline opacity="0.05" points="23.052,91 28.5,105.5 35.166,99 "/>
<polyline opacity="0.01" points="43.333,80.333 35.166,99 23.052,91 "/>
<polyline opacity="0.02" points="51.833,138.5 69.666,150 30.166,150 "/>
<polyline opacity="0.08" points="43.333,80.333 20.54,70.781 23.052,91 "/>
<polyline opacity="0.01" points="25,45.125 20.54,70.781 49,50 "/>
<polyline opacity="0.05" points="20.54,70.781 43.333,80.333 49,50 "/>
<polyline opacity="0.06" points="35.166,99 43.333,80.333 51.833,101 "/>
<polyline opacity="0.08" points="51.833,101 35.166,99 51.833,138.5 "/>
<polyline opacity="0.04" points="69.666,150 51.833,138.5 65.166,121.5 "/>
<polyline opacity="0.06" points="51.833,101 51.833,138.5 65.166,121.5 "/>
<polyline opacity="0.01" points="69.666,150 83.5,115.25 65.166,121.5 "/>
<polyline opacity="0.03" points="69.666,150 86.5,135.75 100,143 "/>
<polyline opacity="0.08" points="69.666,150 83.5,115.25 86.5,135.75 "/>
<polyline opacity="0.05" points="69.666,150 100,150 100,143 "/>
<polyline opacity="0.06" points="97.058,93.447 86.5,135.75 100,143 "/>
<polyline opacity="0.02" points="83.5,115.25 86.5,135.75 97.058,93.447 "/>
<polyline opacity="0.06" points="83.5,115.25 51.833,101 63.833,87.666 "/>
<polyline opacity="0.02" points="65.166,121.5 83.5,115.25 51.833,101 "/>
<polyline opacity="0.04" points="43.333,80.333 51.833,101 63.833,87.666 "/>
<polyline opacity="0.02" points="66.333,65.166 49,50 45.99,66.11 "/>
<polyline opacity="0.05" points="45.99,66.11 66.333,65.166 63.833,87.666 "/>
<polyline opacity="0.01" points="63.833,87.666 45.99,66.11 43.333,80.333 "/>
<polyline opacity="0.04" points="66.333,65.166 83.89,53.229 49,50 "/>
<polyline opacity="0.01" points="83.5,115.25 81.916,95.666 63.833,87.666 "/>
<polyline opacity="0.05" points="81.916,95.666 83.5,115.25 97.058,93.447 "/>
<polyline opacity="0.03" points="76.833,73.666 66.333,65.166 83.89,53.229 "/>
<polyline opacity="0.08" points="66.333,65.166 76.833,73.666 63.833,87.666 "/>
<polyline opacity="0.01" points="81.916,95.666 76.833,73.666 63.833,87.666 "/>
<polyline opacity="0.01" points="89.777,78.882 81.916,95.666 97.058,93.447 "/>
<polyline opacity="0.02" points="83.89,53.229 76.833,73.666 100,43 "/>
<polyline opacity="0.08" points="76.833,73.666 89.777,78.882 81.916,95.666 "/>
<polyline opacity="0.05" points="76.833,73.666 89.777,78.882 100,43 "/>
<polyline opacity="0.08" points="89.777,78.882 94.229,63.447 115.166,83.667 "/>
<polyline opacity="0.09" points="25,45.125 20.54,70.781 17.534,46.581 "/>
<polyline opacity="0.03" points="168,53.229 148.25,50 148.167,38.5 "/>
<polyline opacity="0.09" points="168,53.229 187.063,51.313 185.75,63.5 "/>
<polyline opacity="0.05" points="84.834,-16.333 110.223,-21.118 102.942,-6.552 "/>
<polyline opacity="0.01" points="83.89,3.229 102.942,-6.552 84.834,-16.333 "/>
</svg>
